<svg width="24" height="24" viewBox="0 0 24 24" fill="none" xmlns="http://www.w3.org/2000/svg">
<path d="M17.8807 21.3231C17.8538 21.2962 17.8268 21.2827 17.7998 21.2827L17.8403 21.3231C17.7324 21.3771 17.6516 21.4984 17.5977 21.6871C17.5707 21.8758 17.5033 22.0106 17.3955 22.0914C17.3685 22.1723 17.2742 22.2936 17.1124 22.4554C16.9507 22.6171 16.8294 22.6845 16.7485 22.6575C16.3711 22.5767 15.9263 22.5767 15.4141 22.6575C15.3333 22.7384 15.2524 22.8193 15.1715 22.9001C15.0906 22.981 14.9828 23.0754 14.848 23.1832C14.8211 23.1832 14.7941 23.1967 14.7672 23.2236C14.7402 23.2236 14.6998 23.2236 14.6458 23.2236C14.565 23.2506 14.4437 23.2641 14.2819 23.2641C13.4193 23.2371 12.5701 23.3989 11.7345 23.7493C11.5458 23.8032 11.3436 23.8436 11.1279 23.8706C10.9123 23.8706 10.6966 23.8302 10.481 23.7493C10.3192 23.6684 10.1575 23.628 9.99573 23.628C9.86094 23.601 9.71268 23.601 9.55094 23.628C9.20049 23.628 8.86353 23.5741 8.54004 23.4662C8.40526 23.4932 8.25699 23.5202 8.09525 23.5471C7.96046 23.5741 7.82568 23.6145 7.69089 23.6684C7.5561 23.7223 7.42132 23.7897 7.28653 23.8706C7.15175 23.9784 7.00348 24.0189 6.84174 23.9919C6.81478 23.938 6.77434 23.8841 6.72043 23.8302C6.66652 23.7493 6.6126 23.6549 6.55869 23.5471C6.50477 23.5202 6.43738 23.4932 6.35651 23.4662C6.27564 23.4123 6.20824 23.3719 6.15433 23.3449C5.80389 23.291 5.4804 23.1697 5.18387 22.981C4.77951 22.7114 4.38863 22.5093 4.01123 22.3745C3.82253 22.3206 3.66079 22.2262 3.526 22.0914C3.41817 21.9297 3.29687 21.7949 3.16208 21.6871C3.05425 21.4175 2.9599 21.1614 2.87903 20.9188C2.79816 20.6762 2.74424 20.4201 2.71729 20.1505C2.63641 20.0966 2.56902 20.0427 2.51511 19.9888C2.46119 19.9079 2.40728 19.8405 2.35336 19.7866C2.19162 19.6788 2.11075 19.5844 2.11075 19.5035C2.08379 19.2609 2.00292 19.0722 1.86813 18.9374C1.73335 18.8027 1.61204 18.6139 1.50421 18.3713C1.50421 18.3174 1.49073 18.2365 1.46378 18.1287C1.46378 18.0209 1.4503 17.9131 1.42334 17.8052C1.42334 17.7513 1.42334 17.6839 1.42334 17.6031C1.42334 17.4952 1.40986 17.4144 1.3829 17.3604C1.27508 17.1448 1.16725 16.9426 1.05942 16.7539C0.951589 16.5382 0.857239 16.3361 0.776368 16.1474C0.776368 16.0126 0.803325 15.8104 0.857239 15.5408C0.992025 14.9747 0.978546 14.4221 0.816803 13.883C0.735932 13.6943 0.682017 13.5056 0.65506 13.3169C0.628103 13.1282 0.587667 12.9395 0.533753 12.7508C0.56071 12.6968 0.587667 12.6295 0.614624 12.5486C0.668539 12.4408 0.722453 12.3599 0.776368 12.306L0.493317 11.4568C0.439402 11.322 0.358531 11.2007 0.250702 11.0929C0.16983 10.9581 0.0889587 10.8368 0.00808718 10.729C-0.0188701 10.5133 0.0215658 10.3111 0.129395 10.1224C0.264181 9.93373 0.345052 9.74503 0.372009 9.55633C0.372009 9.47546 0.358531 9.39458 0.331574 9.31371C0.331574 9.23284 0.331574 9.15197 0.331574 9.0711C0.547231 8.77457 0.682017 8.46456 0.735932 8.14108C0.816803 7.81759 0.870718 7.48062 0.897675 7.13018C1.08638 7.02235 1.24812 6.90104 1.3829 6.76626C1.51769 6.63147 1.61204 6.45625 1.66596 6.24059C1.69291 6.15972 1.70639 6.06537 1.70639 5.95754C1.73335 5.84971 1.76031 5.74188 1.78726 5.63405C1.92205 5.4184 2.05683 5.20274 2.19162 4.98708C2.35336 4.74447 2.50163 4.52881 2.63641 4.34011C2.69033 4.20532 2.73076 4.05706 2.75772 3.89532C2.81164 3.73357 2.89251 3.59879 3.00034 3.49096C3.13512 3.41009 3.22947 3.30226 3.28339 3.16747C3.36426 3.03269 3.43165 2.8979 3.48557 2.76311C3.67427 2.73616 3.83601 2.69572 3.9708 2.64181C4.10558 2.58789 4.22689 2.54746 4.33472 2.5205C4.4695 2.43963 4.5369 2.35875 4.5369 2.27788C4.61777 1.90048 4.77951 1.63091 5.02213 1.46917C5.2917 1.28047 5.58823 1.14568 5.91171 1.06481C6.01954 1.03785 6.11389 1.02437 6.19476 1.02437C6.27564 0.997416 6.38347 0.970458 6.51825 0.943501C6.57217 0.889588 6.63956 0.822195 6.72043 0.741323C6.8013 0.633494 6.88217 0.525664 6.96305 0.417835C7.12479 0.363922 7.27305 0.310008 7.40784 0.256092C7.56958 0.202179 7.70437 0.148264 7.8122 0.0943506H8.09525C8.31091 0.175221 8.52656 0.256092 8.74222 0.336965C8.98484 0.390878 9.24093 0.458272 9.5105 0.539144C9.72616 0.512187 9.94182 0.471751 10.1575 0.417835C10.4001 0.336965 10.6292 0.323486 10.8449 0.3774C10.8718 0.3774 10.8988 0.390879 10.9258 0.417835C10.9527 0.417835 10.9797 0.404357 11.0066 0.3774C11.1953 0.3774 11.384 0.350444 11.5727 0.29653C11.7614 0.242615 11.9501 0.229135 12.1388 0.256092C12.3006 0.256092 12.4623 0.242614 12.6241 0.215657C12.8128 0.1887 12.988 0.134786 13.1497 0.0539138C13.2845 0.026957 13.4058 0.0134784 13.5136 0.0134784C13.6484 -0.0134785 13.7832 1.20508e-07 13.918 0.0539138C13.9989 0.134786 14.0797 0.215658 14.1606 0.29653C14.2415 0.350444 14.3358 0.431315 14.4437 0.539144C14.6593 0.566101 14.8885 0.620015 15.1311 0.700887C15.4007 0.754801 15.6702 0.822194 15.9398 0.903066C16.0746 0.930023 16.1959 0.997417 16.3037 1.10525C16.4385 1.21307 16.6002 1.29395 16.7889 1.34786C16.9507 1.40177 17.1124 1.44221 17.2742 1.46917C17.4629 1.46917 17.6516 1.46917 17.8403 1.46917C18.2716 1.90048 18.7838 2.19701 19.3768 2.35876C19.4308 2.38571 19.4847 2.41267 19.5386 2.43963C19.5925 2.46658 19.6464 2.49354 19.7003 2.5205C19.916 2.7092 20.1182 2.91138 20.3069 3.12704C20.5225 3.31574 20.7247 3.50444 20.9134 3.69314C21.1021 3.90879 21.2099 4.13793 21.2369 4.38054C21.4525 4.56925 21.5738 4.71751 21.6008 4.82534C21.6547 4.90621 21.6817 5.1623 21.6817 5.59362C21.8434 5.67449 21.9917 5.76884 22.1265 5.87667C22.2613 5.95754 22.3421 6.09233 22.3691 6.28103C22.423 6.38886 22.4769 6.49669 22.5308 6.60451C22.5847 6.68539 22.6252 6.77974 22.6521 6.88757C22.733 6.99539 22.8139 7.08974 22.8948 7.17062C23.0026 7.22453 23.1104 7.3054 23.2182 7.41323C23.2991 7.60193 23.3665 7.79063 23.4204 7.97933C23.4743 8.14107 23.4743 8.32977 23.4204 8.54543C23.3665 8.73413 23.353 8.93631 23.38 9.15197C23.4069 9.36763 23.4069 9.59676 23.38 9.83938C23.353 10.055 23.353 10.2842 23.38 10.5268C23.4069 10.7694 23.4339 10.9985 23.4609 11.2142C23.4878 11.322 23.5013 11.4433 23.5013 11.5781C23.5013 11.6859 23.5148 11.7803 23.5417 11.8612C23.6496 12.0499 23.7035 12.2386 23.7035 12.4273C23.7304 12.616 23.7304 12.8047 23.7035 12.9934C23.7035 13.1012 23.7035 13.209 23.7035 13.3169C23.7304 13.3977 23.7439 13.5056 23.7439 13.6403C23.6361 13.9908 23.5417 14.3547 23.4609 14.7321C23.38 15.0826 23.2587 15.4195 23.0969 15.743C22.9352 16.0395 22.7734 16.3361 22.6117 16.6326C22.45 16.9291 22.2613 17.2122 22.0456 17.4817V18.1692C21.9108 18.25 21.776 18.3444 21.6412 18.4522C21.5334 18.5331 21.4391 18.6005 21.3582 18.6544C21.1695 18.9779 21.0482 19.2744 20.9943 19.544C20.9673 19.7866 20.9134 20.0157 20.8325 20.2314C20.7247 20.3392 20.6169 20.447 20.509 20.5549C20.4012 20.6627 20.2799 20.7705 20.1451 20.8784C20.0103 20.9862 19.8486 21.0805 19.6599 21.1614C19.4981 21.2153 19.3094 21.2018 19.0938 21.121C18.8512 21.0671 18.649 21.0805 18.4872 21.1614C18.3794 21.1884 18.2716 21.2153 18.1638 21.2423C18.0559 21.2692 17.9616 21.2962 17.8807 21.3231ZM17.2337 12.1847C17.1798 12.0499 17.1394 11.9286 17.1124 11.8207C17.1124 11.6859 17.099 11.5512 17.072 11.4164C17.072 11.2007 17.0585 11.0255 17.0316 10.8907C16.9776 10.6751 16.8968 10.4459 16.7889 10.2033C16.7081 9.93373 16.6137 9.67763 16.5059 9.43502C16.4789 9.32719 16.425 9.21936 16.3442 9.11153C16.2902 8.97675 16.2363 8.85544 16.1824 8.74761C15.9668 8.3163 15.6298 8.0602 15.1715 7.97933C15.0906 7.95237 14.9963 7.92542 14.8885 7.89846C14.7806 7.84455 14.6863 7.79063 14.6054 7.73672C14.4437 7.62889 14.2819 7.54802 14.1202 7.4941C13.9584 7.44019 13.7967 7.39975 13.635 7.37279C13.4193 7.31888 13.1902 7.26497 12.9475 7.21105C12.7049 7.13018 12.4758 7.07627 12.2601 7.04931C11.9906 6.91452 11.7345 6.928 11.4919 7.08974C10.764 7.38627 10.1036 7.77715 9.5105 8.26238C8.91744 8.72066 8.40526 9.35415 7.97394 10.1629C7.89307 10.2707 7.8122 10.392 7.73133 10.5268C7.67741 10.6616 7.6235 10.7964 7.56958 10.9311C7.46175 11.0659 7.3674 11.2142 7.28653 11.3759C7.20566 11.5107 7.13827 11.6455 7.08435 11.7803C7.11131 11.996 7.20566 12.1712 7.3674 12.306C7.52915 12.4408 7.6235 12.616 7.65045 12.8316C7.65045 12.9395 7.61002 13.0473 7.52915 13.1551C7.44827 13.236 7.39436 13.3303 7.3674 13.4382C7.42132 13.546 7.48871 13.6673 7.56958 13.8021C7.65045 13.9369 7.71785 14.0717 7.77176 14.2064C7.85263 14.3412 7.90655 14.4895 7.9335 14.6512C7.98742 14.786 8.02785 14.9343 8.05481 15.096C8.10873 15.2308 8.14916 15.3656 8.17612 15.5004C8.23003 15.6352 8.27047 15.77 8.29743 15.9048L8.86353 16.3495C8.9444 16.4035 9.02527 16.4843 9.10614 16.5922C9.21397 16.673 9.3218 16.7404 9.42963 16.7943C9.75312 16.8752 10.0362 16.9561 10.2788 17.037C10.4944 17.0909 10.6831 17.1178 10.8449 17.1178C11.0066 17.1178 11.1818 17.1178 11.3705 17.1178C11.3705 17.1178 11.3571 17.1178 11.3301 17.1178C11.3301 17.1178 11.3301 17.1313 11.3301 17.1583H11.411C11.384 17.1583 11.3705 17.1448 11.3705 17.1178C11.4245 17.0639 11.4919 17.037 11.5727 17.037C11.6536 17.01 11.721 16.9965 11.7749 16.9965C11.9366 16.9965 12.0984 17.01 12.2601 17.037C12.4488 17.037 12.6375 17.0235 12.8262 16.9965C12.8802 16.9426 12.9475 16.9426 13.0284 16.9965C13.1362 17.0235 13.2306 17.0504 13.3115 17.0774C13.4193 17.0774 13.5002 17.0504 13.5541 16.9965C13.5541 16.8887 13.5406 16.7943 13.5136 16.7135C13.5136 16.6326 13.5541 16.5652 13.635 16.5113C13.9854 16.3226 14.3224 16.1743 14.6458 16.0665C14.7806 15.9587 14.8885 15.8643 14.9693 15.7834C15.0772 15.7026 15.1715 15.6082 15.2524 15.5004C15.3602 15.4465 15.4411 15.3791 15.495 15.2982C15.5759 15.2173 15.6702 15.1634 15.7781 15.1365C16.0207 15.0556 16.2228 14.9478 16.3846 14.813C16.5733 14.6512 16.7485 14.4895 16.9103 14.3278C16.9372 14.2738 16.9507 14.2334 16.9507 14.2064C16.9776 14.1525 17.0046 14.0986 17.0316 14.0447C17.3281 13.4247 17.3955 12.8047 17.2337 12.1847Z" fill="#FC4F4E"/>
</svg>
