<svg width="23" height="24" viewBox="0 0 23 24" fill="none" xmlns="http://www.w3.org/2000/svg">
<path d="M22.1176 4.14118C22.0863 4.23529 22.0706 4.31372 22.0706 4.37647C22.0706 4.43921 22.0549 4.51765 22.0235 4.61177C21.898 4.86275 21.7412 5.12941 21.5529 5.41177C21.3961 5.69412 21.1922 5.92941 20.9412 6.11765C20.6274 6.36863 20.3294 6.68235 20.0471 7.05882C19.7961 7.40392 19.5451 7.74902 19.2941 8.09412C19.1373 8.40784 18.9804 8.64314 18.8235 8.8C18.6667 8.95686 18.5098 9.09804 18.3529 9.22353C18.1961 9.31765 18.0863 9.42745 18.0235 9.55294C17.8667 9.77255 17.6941 9.9451 17.5059 10.0706C17.3176 10.1647 17.1294 10.2902 16.9412 10.4471C16.8471 10.5412 16.7529 10.651 16.6588 10.7765C16.5647 10.902 16.4863 11.0275 16.4235 11.1529C16.4549 11.5608 16.5804 11.9373 16.8 12.2824C17.0196 12.6274 17.1922 12.9882 17.3176 13.3647C17.6314 13.5843 17.898 13.851 18.1176 14.1647C18.3686 14.4471 18.5882 14.7608 18.7765 15.1059C19.0274 15.451 19.2941 15.7804 19.5765 16.0941C19.8902 16.4078 20.2039 16.7216 20.5176 17.0353C20.6431 17.1608 20.7686 17.302 20.8941 17.4588C21.051 17.6157 21.1922 17.7725 21.3176 17.9294C21.4118 18.2118 21.5059 18.4941 21.6 18.7765C21.7255 19.0588 21.8196 19.3255 21.8823 19.5765C21.6 20.0784 21.2863 20.549 20.9412 20.9882C20.9412 21.0196 20.9255 21.0667 20.8941 21.1294C20.8941 21.1922 20.8941 21.2549 20.8941 21.3176C20.8 21.5686 20.6431 21.7412 20.4235 21.8353C20.3608 21.898 20.2824 21.9451 20.1882 21.9765C20.0941 22.0078 20.0157 22.0392 19.9529 22.0706C19.8274 22.1961 19.702 22.3373 19.5765 22.4941C19.4823 22.6196 19.3725 22.7451 19.2471 22.8706C19.0274 22.9333 18.8078 22.9804 18.5882 23.0118C18.4 23.0745 18.2118 23.1373 18.0235 23.2C17.7725 23.1686 17.6 23.0745 17.5059 22.9176C17.4431 22.7608 17.3333 22.6196 17.1765 22.4941C17.051 22.4314 16.9098 22.3686 16.7529 22.3059C16.5961 22.2118 16.4235 22.1333 16.2353 22.0706C16.1098 21.851 15.9059 21.6627 15.6235 21.5059C15.3725 21.349 15.1216 21.2078 14.8706 21.0824C14.8392 21.0196 14.8078 20.9412 14.7765 20.8471C14.7451 20.7529 14.698 20.6745 14.6353 20.6118C14.5412 20.5804 14.4314 20.549 14.3059 20.5176C14.2118 20.4863 14.1333 20.4235 14.0706 20.3294C14.0078 20.2667 13.9137 20.1569 13.7882 20C13.5686 19.8745 13.3804 19.702 13.2235 19.4824C13.098 19.2627 12.9569 19.0745 12.8 18.9176C12.6118 18.7294 12.4235 18.5569 12.2353 18.4C12.0471 18.2118 11.8745 18.0235 11.7176 17.8353C11.6863 17.7725 11.6549 17.7255 11.6235 17.6941C11.6235 17.6314 11.5922 17.5686 11.5294 17.5059C11.4039 17.3176 11.2157 17.2235 10.9647 17.2235C10.902 17.2235 10.8706 17.2392 10.8706 17.2706C10.6824 17.4275 10.5255 17.6 10.4 17.7882C10.2745 17.9451 10.1961 18.149 10.1647 18.4C10.1333 18.4314 10.1176 18.4627 10.1176 18.4941C10.1176 18.5255 10.102 18.5569 10.0706 18.5882C9.85098 18.7137 9.67843 18.8863 9.55294 19.1059C9.45882 19.2941 9.33333 19.4667 9.17647 19.6235C9.08235 19.7804 8.95686 19.9529 8.8 20.1412C8.67451 20.298 8.54902 20.4549 8.42353 20.6118C8.23529 20.8314 8.04706 21.0667 7.85882 21.3176C7.67059 21.5373 7.46667 21.7412 7.24706 21.9294C7.09019 22.0235 6.9647 22.149 6.87059 22.3059C6.7451 22.4627 6.63529 22.6039 6.54118 22.7294C6.44706 22.8549 6.30588 22.9647 6.11765 23.0588C5.96078 23.1216 5.80392 23.2 5.64706 23.2941C5.52157 23.4196 5.36471 23.5137 5.17647 23.5765C5.11372 23.5765 5.03529 23.5922 4.94118 23.6235C4.84706 23.6863 4.76863 23.749 4.70588 23.8118C4.61176 23.8431 4.53333 23.8745 4.47059 23.9059C4.40784 23.9686 4.31372 24 4.18823 24C3.93725 23.9373 3.7647 23.8431 3.67059 23.7176C3.41961 23.4039 3.21569 23.1373 3.05882 22.9176C2.93333 22.6667 2.79216 22.4157 2.63529 22.1647C2.47843 21.9137 2.27451 21.6784 2.02353 21.4588C1.80392 21.2078 1.63137 20.9412 1.50588 20.6588C1.41176 20.3765 1.28627 20.1098 1.12941 19.8588C1.2549 19.4196 1.34902 19.0902 1.41176 18.8706C1.50588 18.651 1.6 18.4314 1.69412 18.2118C1.81961 17.9922 2.00784 17.6784 2.25882 17.2706C2.5098 17.0196 2.7451 16.7529 2.96471 16.4706C3.21569 16.1882 3.43529 15.8902 3.62353 15.5765C3.84314 15.2 4.06274 14.8235 4.28235 14.4471C4.53333 14.0392 4.81569 13.6784 5.12941 13.3647C5.28627 13.1765 5.44314 12.9725 5.6 12.7529C5.75686 12.5333 5.91372 12.3137 6.07059 12.0941C6.13333 12.0314 6.21176 11.9686 6.30588 11.9059C6.43137 11.8118 6.52549 11.702 6.58823 11.5765C6.65098 11.5137 6.68235 11.4353 6.68235 11.3412C6.68235 11.2157 6.65098 11.1373 6.58823 11.1059C6.24314 10.7608 5.89804 10.4157 5.55294 10.0706C5.20784 9.72549 4.81569 9.41176 4.37647 9.12941C4.21961 9.06667 4.07843 8.98823 3.95294 8.89412C3.82745 8.76863 3.70196 8.6902 3.57647 8.65882C3.26274 8.50196 3.01176 8.32941 2.82353 8.14118C2.63529 7.92157 2.46274 7.67059 2.30588 7.38823C2.24314 7.26274 2.16471 7.12157 2.07059 6.96471C1.97647 6.80784 1.89804 6.66667 1.83529 6.54118C1.52157 6.32157 1.22353 6.11765 0.941176 5.92941C0.690196 5.7098 0.407843 5.53726 0.0941177 5.41177C0.0313726 5.28627 0 5.19216 0 5.12941C0 4.97255 0 4.83137 0 4.70588C0.0313725 4.58039 0.0470588 4.4549 0.0470588 4.32941C0.203921 4.23529 0.329412 4.14118 0.423529 4.04706C0.517647 3.95294 0.611765 3.85882 0.705882 3.7647C0.831372 3.60784 0.894117 3.43529 0.894117 3.24706C0.92549 3.02745 0.92549 2.80784 0.894117 2.58823C0.988235 2.52549 1.06667 2.46274 1.12941 2.4C1.19216 2.33725 1.2549 2.29019 1.31765 2.25882C1.63137 2.16471 1.91373 2.02353 2.16471 1.83529C2.44706 1.64706 2.65098 1.41176 2.77647 1.12941C3.0902 1.06667 3.38823 1.00392 3.67059 0.941177C3.95294 0.84706 4.23529 0.8 4.51765 0.8C4.70588 0.8 4.87843 0.784313 5.03529 0.75294C5.22353 0.690195 5.41176 0.643137 5.6 0.611765C6.22745 1.01961 6.65098 1.33333 6.87059 1.55294C7.12157 1.77255 7.43529 2.18039 7.81176 2.77647C7.96863 2.87059 8.15686 2.99608 8.37647 3.15294C8.40784 3.24706 8.42353 3.34118 8.42353 3.43529C8.4549 3.52941 8.48627 3.62353 8.51765 3.71765C8.67451 3.84314 8.83137 3.95294 8.98823 4.04706C9.1451 4.14118 9.27059 4.28235 9.3647 4.47059C9.89804 5.09804 10.5098 5.6 11.2 5.97647C11.2627 5.97647 11.3569 5.9451 11.4824 5.88235C11.5451 5.85098 11.5922 5.80392 11.6235 5.74118C11.6549 5.67843 11.6863 5.63137 11.7176 5.6C12.251 5.19216 12.7059 4.6902 13.0824 4.09412C13.2392 3.84314 13.4745 3.76471 13.7882 3.85882C13.9137 3.92157 14.0078 3.92157 14.0706 3.85882C14.1647 3.85882 14.2118 3.81176 14.2118 3.71765C14.2118 3.3098 14.3843 2.93333 14.7294 2.58823C14.8549 2.43137 14.9647 2.27451 15.0588 2.11765C15.1843 1.96078 15.3412 1.83529 15.5294 1.74118C15.7176 1.61569 15.8431 1.38039 15.9059 1.03529C15.9373 0.752941 16.0314 0.533333 16.1882 0.37647C16.3451 0.188235 16.5333 0.0627452 16.7529 0C16.9412 0.0313731 17.1294 0.0941177 17.3176 0.188235C17.5059 0.25098 17.6784 0.29804 17.8353 0.329412C17.9922 0.360785 18.149 0.407843 18.3059 0.470587C18.4627 0.50196 18.6196 0.54902 18.7765 0.611765C18.902 0.737256 19.0431 0.862744 19.2 0.988234C19.3569 1.11372 19.498 1.23922 19.6235 1.36471V1.92941C19.8431 2.27451 20.1098 2.49412 20.4235 2.58823C20.5804 2.61961 20.7059 2.66667 20.8 2.72941C20.9255 2.76078 21.051 2.80784 21.1765 2.87059V2.91765C21.1765 2.91765 21.2078 2.99608 21.2706 3.15294C21.3647 3.27843 21.4274 3.41961 21.4588 3.57647C21.5529 3.63922 21.6471 3.73333 21.7412 3.85882C21.8667 3.95294 21.9922 4.04706 22.1176 4.14118Z" fill="#00BCD3"/>
</svg>
