<svg width="278" height="280" viewBox="0 0 278 280" fill="none" xmlns="http://www.w3.org/2000/svg">
<path d="M208.608 248.77C208.294 248.456 207.979 248.298 207.665 248.298L208.137 248.77C206.879 249.399 205.935 250.814 205.306 253.016C204.992 255.217 204.205 256.79 202.947 257.733C202.633 258.677 201.532 260.092 199.645 261.979C197.758 263.866 196.343 264.652 195.399 264.338C190.996 263.394 185.807 263.394 179.832 264.338C178.888 265.281 177.944 266.225 177.001 267.168C176.057 268.112 174.799 269.213 173.227 270.471C172.912 270.471 172.598 270.628 172.283 270.942C171.969 270.942 171.497 270.942 170.868 270.942C169.925 271.257 168.509 271.414 166.622 271.414C156.558 271.1 146.652 272.987 136.902 277.075C134.701 277.704 132.342 278.176 129.826 278.49C127.31 278.49 124.794 278.019 122.278 277.075C120.391 276.132 118.504 275.66 116.617 275.66C115.044 275.345 113.315 275.345 111.428 275.66C107.339 275.66 103.408 275.031 99.6338 273.773C98.0613 274.087 96.3316 274.402 94.4446 274.716C92.8721 275.031 91.2996 275.503 89.727 276.132C88.1545 276.761 86.582 277.547 85.0095 278.49C83.437 279.748 81.7073 280.22 79.8203 279.906C79.5058 279.277 79.034 278.648 78.405 278.019C77.776 277.075 77.147 275.974 76.518 274.716C75.889 274.402 75.1028 274.087 74.1593 273.773C73.2158 273.144 72.4295 272.672 71.8005 272.358C67.712 271.729 63.938 270.313 60.4785 268.112C55.761 264.967 51.2007 262.608 46.7977 261.036C44.5962 260.407 42.7092 259.306 41.1367 257.733C39.8787 255.846 38.4634 254.274 36.8909 253.016C35.6329 249.871 34.5322 246.883 33.5887 244.053C32.6452 241.222 32.0162 238.234 31.7017 235.089C30.7582 234.46 29.9719 233.831 29.3429 233.202C28.7139 232.259 28.0849 231.473 27.4559 230.844C25.5689 229.586 24.6254 228.485 24.6254 227.541C24.3109 224.711 23.3674 222.509 21.7949 220.937C20.2224 219.364 18.8071 217.163 17.5491 214.332C17.5491 213.703 17.3919 212.76 17.0774 211.502C17.0774 210.244 16.9201 208.986 16.6056 207.728C16.6056 207.099 16.6056 206.312 16.6056 205.369C16.6056 204.111 16.4484 203.167 16.1339 202.538C14.8759 200.022 13.6179 197.664 12.3599 195.462C11.1019 192.946 10.0011 190.587 9.05762 188.386C9.05762 186.813 9.37212 184.455 10.0011 181.31C11.5736 174.705 11.4164 168.258 9.52937 161.968C8.58587 159.766 7.95687 157.565 7.64237 155.363C7.32787 153.162 6.85612 150.96 6.22712 148.759C6.54162 148.13 6.85612 147.344 7.17062 146.4C7.79962 145.142 8.42862 144.199 9.05762 143.57L5.75536 133.663C5.12636 132.09 4.18286 130.675 2.92486 129.417C1.98135 127.845 1.03785 126.429 0.0943504 125.171C-0.220151 122.655 0.251601 120.297 1.5096 118.095C3.08211 115.894 4.02561 113.692 4.34011 111.49C4.34011 110.547 4.18286 109.603 3.86836 108.66C3.86836 107.716 3.86836 106.773 3.86836 105.829C6.38436 102.37 7.95687 98.7532 8.58587 94.9792C9.52937 91.2052 10.1584 87.2739 10.4729 83.1854C12.6744 81.9274 14.5614 80.5122 16.1339 78.9397C17.7064 77.3672 18.8071 75.3229 19.4361 72.8069C19.7506 71.8634 19.9079 70.7627 19.9079 69.5046C20.2224 68.2466 20.5369 66.9886 20.8514 65.7306C22.4239 63.2146 23.9964 60.6986 25.5689 58.1826C27.4559 55.3521 29.1857 52.8361 30.7582 50.6346C31.3872 49.0621 31.8589 47.3323 32.1734 45.4453C32.8024 43.5583 33.7459 41.9859 35.0039 40.7278C36.5764 39.7843 37.6772 38.5263 38.3062 36.9538C39.2497 35.3813 40.0359 33.8088 40.6649 32.2363C42.8664 31.9218 44.7535 31.4501 46.326 30.8211C47.8985 30.1921 49.3137 29.7203 50.5717 29.4058C52.1442 28.4623 52.9305 27.5188 52.9305 26.5753C53.874 22.1723 55.761 19.0273 58.5915 17.1403C61.7365 14.9388 65.196 13.3663 68.97 12.4228C70.228 12.1083 71.3288 11.951 72.2723 11.951C73.2158 11.6365 74.4738 11.322 76.0463 11.0075C76.6753 10.3785 77.4615 9.59227 78.405 8.64877C79.3485 7.39076 80.292 6.13275 81.2355 4.87475C83.1225 4.24575 84.8523 3.61676 86.4248 2.98774C88.3118 2.35875 89.8843 1.72975 91.1423 1.10076H94.4446C96.9606 2.04425 99.4766 2.98774 101.993 3.93125C104.823 4.56025 107.811 5.34651 110.956 6.29002C113.472 5.97552 115.988 5.50376 118.504 4.87475C121.334 3.93126 124.008 3.77401 126.524 4.403C126.838 4.403 127.153 4.56025 127.467 4.87475C127.782 4.87475 128.096 4.7175 128.411 4.403C130.612 4.403 132.814 4.08851 135.015 3.45952C137.217 2.83051 139.418 2.67325 141.62 2.98774C143.507 2.98774 145.394 2.83049 147.281 2.516C149.482 2.2015 151.526 1.5725 153.413 0.628995C154.986 0.314498 156.401 0.157248 157.659 0.157248C159.232 -0.157249 160.804 1.40593e-06 162.377 0.628995C163.32 1.5725 164.264 2.51601 165.207 3.45952C166.151 4.08851 167.251 5.03201 168.509 6.29002C171.025 6.60451 173.699 7.23351 176.529 8.17702C179.674 8.80601 182.819 9.59226 185.964 10.5358C187.537 10.8503 188.952 11.6365 190.21 12.8945C191.783 14.1525 193.67 15.096 195.871 15.725C197.758 16.354 199.645 16.8258 201.532 17.1403C203.734 17.1403 205.935 17.1403 208.137 17.1403C213.169 22.1723 219.144 25.6318 226.063 27.5188C226.692 27.8333 227.321 28.1478 227.95 28.4623C228.579 28.7768 229.208 29.0913 229.837 29.4058C232.353 31.6073 234.712 33.9661 236.913 36.4821C239.429 38.6836 241.788 40.8851 243.99 43.0866C246.191 45.6026 247.449 48.2758 247.764 51.1064C250.28 53.3079 251.695 55.0376 252.009 56.2956C252.638 57.2391 252.953 60.2269 252.953 65.2589C254.84 66.2024 256.57 67.3031 258.142 68.5612C259.715 69.5047 260.658 71.0771 260.973 73.2787C261.602 74.5367 262.231 75.7947 262.86 77.0527C263.489 77.9962 263.96 79.0969 264.275 80.3549C265.218 81.6129 266.162 82.7137 267.105 83.6572C268.363 84.2862 269.621 85.2297 270.879 86.4877C271.823 88.6892 272.609 90.8907 273.238 93.0922C273.867 94.9792 273.867 97.1807 273.238 99.6967C272.609 101.898 272.452 104.257 272.766 106.773C273.081 109.289 273.081 111.962 272.766 114.793C272.452 117.309 272.452 119.982 272.766 122.813C273.081 125.643 273.395 128.316 273.71 130.832C274.024 132.09 274.182 133.506 274.182 135.078C274.182 136.336 274.339 137.437 274.653 138.38C275.911 140.582 276.54 142.783 276.54 144.985C276.855 147.186 276.855 149.388 276.54 151.589C276.54 152.847 276.54 154.105 276.54 155.363C276.855 156.307 277.012 157.565 277.012 159.137C275.754 163.226 274.653 167.472 273.71 171.875C272.766 175.963 271.351 179.894 269.464 183.668C267.577 187.128 265.69 190.587 263.803 194.047C261.916 197.506 259.715 200.809 257.199 203.954V211.973C255.626 212.917 254.054 214.018 252.481 215.276C251.223 216.219 250.122 217.005 249.179 217.634C246.977 221.408 245.562 224.868 244.933 228.013C244.619 230.844 243.99 233.517 243.046 236.033C241.788 237.291 240.53 238.549 239.272 239.807C238.014 241.065 236.599 242.323 235.026 243.581C233.454 244.839 231.567 245.94 229.365 246.883C227.478 247.512 225.277 247.355 222.761 246.411C219.93 245.782 217.572 245.94 215.685 246.883C214.427 247.198 213.169 247.512 211.911 247.827C210.653 248.141 209.552 248.456 208.608 248.77ZM201.06 142.154C200.431 140.582 199.96 139.167 199.645 137.909C199.645 136.336 199.488 134.764 199.173 133.191C199.173 130.675 199.016 128.631 198.702 127.058C198.073 124.542 197.129 121.869 195.871 119.039C194.928 115.893 193.827 112.906 192.569 110.075C192.254 108.817 191.625 107.559 190.682 106.301C190.053 104.729 189.424 103.313 188.795 102.055C186.279 97.0235 182.348 94.0357 177.001 93.0922C176.057 92.7777 174.957 92.4632 173.699 92.1487C172.441 91.5197 171.34 90.8907 170.396 90.2617C168.509 89.0037 166.622 88.0602 164.735 87.4312C162.848 86.8022 160.961 86.3304 159.074 86.0159C156.558 85.3869 153.885 84.7579 151.055 84.1289C148.224 83.1854 145.551 82.5564 143.035 82.2419C139.89 80.6694 136.902 80.8267 134.072 82.7137C125.58 86.1732 117.875 90.7335 110.956 96.3945C104.037 101.741 98.0613 109.132 93.0293 118.567C92.0858 119.825 91.1423 121.24 90.1988 122.813C89.5698 124.385 88.9408 125.958 88.3118 127.53C87.0538 129.103 85.953 130.832 85.0095 132.719C84.066 134.292 83.2798 135.864 82.6508 137.437C82.9653 139.953 84.066 141.997 85.953 143.57C87.84 145.142 88.9408 147.186 89.2553 149.702C89.2553 150.96 88.7835 152.218 87.84 153.476C86.8965 154.42 86.2675 155.521 85.953 156.779C86.582 158.037 87.3683 159.452 88.3118 161.024C89.2553 162.597 90.0415 164.169 90.6705 165.742C91.6141 167.314 92.2431 169.044 92.5576 170.931C93.1866 172.504 93.6583 174.233 93.9728 176.12C94.6018 177.693 95.0736 179.265 95.3881 180.838C96.0171 182.41 96.4888 183.983 96.8033 185.555L103.408 190.745C104.351 191.374 105.295 192.317 106.238 193.575C107.496 194.519 108.754 195.305 110.012 195.934C113.786 196.877 117.089 197.821 119.919 198.764C122.435 199.393 124.637 199.708 126.524 199.708C128.411 199.708 130.455 199.708 132.656 199.708C132.656 199.708 132.499 199.708 132.185 199.708C132.185 199.708 132.185 199.865 132.185 200.18H133.128C132.814 200.18 132.656 200.022 132.656 199.708C133.285 199.079 134.072 198.764 135.015 198.764C135.959 198.45 136.745 198.293 137.374 198.293C139.261 198.293 141.148 198.45 143.035 198.764C145.236 198.764 147.438 198.607 149.639 198.293C150.268 197.664 151.055 197.664 151.998 198.293C153.256 198.607 154.357 198.922 155.3 199.236C156.558 199.236 157.502 198.922 158.131 198.293C158.131 197.035 157.974 195.934 157.659 194.99C157.659 194.047 158.131 193.261 159.074 192.632C163.163 190.43 167.094 188.7 170.868 187.442C172.441 186.184 173.699 185.084 174.642 184.14C175.9 183.197 177.001 182.096 177.945 180.838C179.203 180.209 180.146 179.423 180.775 178.479C181.719 177.536 182.819 176.907 184.077 176.592C186.908 175.649 189.267 174.391 191.154 172.818C193.355 170.931 195.399 169.044 197.286 167.157C197.601 166.528 197.758 166.056 197.758 165.742C198.073 165.113 198.387 164.484 198.702 163.855C202.161 156.621 202.947 149.388 201.06 142.154Z" fill="white"/>
</svg>
