<svg width="259" height="280" viewBox="0 0 259 280" fill="none" xmlns="http://www.w3.org/2000/svg">
<path d="M258.039 48.3137C257.673 49.4118 257.49 50.3268 257.49 51.0588C257.49 51.7908 257.307 52.7059 256.941 53.8039C255.477 56.732 253.647 59.8431 251.451 63.1373C249.621 66.4314 247.242 69.1765 244.314 71.3725C240.654 74.3006 237.176 77.9608 233.882 82.3529C230.954 86.3791 228.026 90.4052 225.098 94.4314C223.268 98.0915 221.438 100.837 219.608 102.667C217.778 104.497 215.948 106.144 214.118 107.608C212.288 108.706 211.007 109.987 210.274 111.451C208.444 114.013 206.431 116.026 204.235 117.49C202.039 118.588 199.843 120.052 197.647 121.882C196.549 122.98 195.451 124.261 194.353 125.725C193.255 127.19 192.34 128.654 191.608 130.118C191.974 134.876 193.438 139.268 196 143.294C198.562 147.32 200.575 151.529 202.039 155.922C205.699 158.484 208.81 161.595 211.373 165.255C214.301 168.549 216.863 172.209 219.059 176.235C221.987 180.261 225.098 184.105 228.392 187.765C232.052 191.425 235.712 195.085 239.373 198.745C240.837 200.209 242.301 201.856 243.765 203.686C245.595 205.516 247.242 207.346 248.706 209.176C249.804 212.471 250.902 215.765 252 219.059C253.464 222.353 254.562 225.464 255.294 228.392C252 234.248 248.34 239.739 244.314 244.863C244.314 245.229 244.131 245.778 243.765 246.51C243.765 247.242 243.765 247.974 243.765 248.706C242.667 251.634 240.837 253.647 238.274 254.745C237.542 255.477 236.627 256.026 235.529 256.392C234.431 256.758 233.516 257.124 232.784 257.49C231.32 258.954 229.856 260.601 228.392 262.431C227.294 263.895 226.013 265.359 224.549 266.823C221.987 267.556 219.425 268.105 216.863 268.471C214.667 269.203 212.471 269.935 210.274 270.667C207.346 270.301 205.333 269.203 204.235 267.373C203.503 265.542 202.222 263.895 200.392 262.431C198.928 261.699 197.281 260.967 195.451 260.235C193.621 259.137 191.608 258.222 189.412 257.49C187.948 254.928 185.569 252.732 182.275 250.902C179.346 249.072 176.418 247.425 173.49 245.961C173.124 245.229 172.758 244.314 172.392 243.216C172.026 242.118 171.477 241.203 170.745 240.471C169.647 240.105 168.366 239.739 166.902 239.373C165.804 239.007 164.889 238.275 164.157 237.176C163.425 236.444 162.327 235.163 160.863 233.333C158.301 231.869 156.105 229.856 154.275 227.294C152.81 224.732 151.163 222.536 149.333 220.706C147.137 218.51 144.941 216.497 142.745 214.667C140.549 212.471 138.536 210.275 136.706 208.078C136.34 207.346 135.974 206.797 135.608 206.431C135.608 205.699 135.242 204.967 134.51 204.235C133.046 202.039 130.85 200.941 127.922 200.941C127.19 200.941 126.824 201.124 126.824 201.49C124.627 203.32 122.797 205.333 121.333 207.529C119.869 209.359 118.954 211.739 118.588 214.667C118.222 215.033 118.039 215.399 118.039 215.765C118.039 216.131 117.856 216.497 117.49 216.863C114.928 218.327 112.915 220.34 111.451 222.902C110.353 225.098 108.889 227.111 107.059 228.941C105.961 230.771 104.497 232.784 102.667 234.98C101.203 236.81 99.7386 238.64 98.2745 240.471C96.0784 243.033 93.8823 245.778 91.6863 248.706C89.4902 251.268 87.1111 253.647 84.549 255.843C82.7189 256.941 81.2549 258.405 80.1569 260.235C78.6928 262.065 77.4118 263.712 76.3137 265.176C75.2157 266.64 73.5686 267.922 71.3725 269.02C69.5425 269.752 67.7124 270.667 65.8823 271.765C64.4183 273.229 62.5882 274.327 60.3922 275.059C59.6601 275.059 58.7451 275.242 57.6471 275.608C56.549 276.34 55.634 277.072 54.902 277.804C53.8039 278.17 52.8889 278.536 52.1569 278.902C51.4248 279.634 50.3268 280 48.8627 280C45.9346 279.268 43.9216 278.17 42.8235 276.706C39.8954 273.046 37.5163 269.935 35.6863 267.373C34.2222 264.444 32.5752 261.516 30.7451 258.588C28.915 255.66 26.5359 252.915 23.6078 250.353C21.0458 247.425 19.0327 244.314 17.5686 241.02C16.4706 237.725 15.0065 234.614 13.1765 231.686C14.6405 226.562 15.7386 222.719 16.4706 220.157C17.5686 217.595 18.6667 215.033 19.7647 212.471C21.2288 209.908 23.4248 206.248 26.3529 201.49C29.281 198.562 32.0261 195.451 34.5882 192.157C37.5163 188.863 40.0784 185.386 42.2745 181.725C44.8366 177.333 47.3987 172.941 49.9608 168.549C52.8889 163.791 56.183 159.582 59.8431 155.922C61.6732 153.725 63.5033 151.346 65.3333 148.784C67.1634 146.222 68.9935 143.66 70.8235 141.098C71.5555 140.366 72.4706 139.634 73.5686 138.902C75.0327 137.804 76.1307 136.523 76.8627 135.059C77.5948 134.327 77.9608 133.412 77.9608 132.314C77.9608 130.85 77.5948 129.935 76.8627 129.569C72.8366 125.542 68.8105 121.516 64.7843 117.49C60.7582 113.464 56.183 109.804 51.0588 106.51C49.2287 105.778 47.5817 104.863 46.1176 103.765C44.6536 102.301 43.1895 101.386 41.7255 101.02C38.0654 99.1895 35.1373 97.1765 32.9412 94.9804C30.7451 92.4183 28.732 89.4902 26.902 86.1961C26.1699 84.732 25.2549 83.085 24.1569 81.2549C23.0588 79.4248 22.1438 77.7778 21.4118 76.3137C17.7516 73.7516 14.2745 71.3725 10.9804 69.1765C8.05229 66.6144 4.75817 64.6013 1.09804 63.1373C0.366014 61.6732 0 60.5752 0 59.8431C0 58.0131 0 56.366 0 54.902C0.366012 53.4379 0.549019 51.9739 0.549019 50.5098C2.37908 49.4118 3.84314 48.3137 4.94118 47.2157C6.03922 46.1176 7.13725 45.0196 8.23529 43.9216C9.69935 42.0915 10.4314 40.0784 10.4314 37.8823C10.7974 35.3203 10.7974 32.7582 10.4314 30.1961C11.5294 29.464 12.4444 28.732 13.1765 28C13.9085 27.268 14.6405 26.7189 15.3725 26.3529C19.0327 25.2549 22.3268 23.6078 25.2549 21.4118C28.549 19.2157 30.9281 16.4706 32.3922 13.1765C36.0523 12.4444 39.5294 11.7124 42.8235 10.9804C46.1176 9.88236 49.4118 9.33334 52.7059 9.33334C54.902 9.33334 56.915 9.15032 58.7451 8.7843C60.9412 8.05228 63.1372 7.50327 65.3333 7.13726C72.6536 11.8954 77.5948 15.5555 80.1569 18.1176C83.085 20.6797 86.7451 25.4379 91.1372 32.3922C92.9673 33.4902 95.1634 34.9542 97.7255 36.7843C98.0915 37.8823 98.2745 38.9804 98.2745 40.0784C98.6405 41.1765 99.0065 42.2745 99.3725 43.3725C101.203 44.8366 103.033 46.1176 104.863 47.2157C106.693 48.3137 108.157 49.9608 109.255 52.1569C115.477 59.4771 122.614 65.3333 130.667 69.7255C131.399 69.7255 132.497 69.3595 133.961 68.6274C134.693 68.2614 135.242 67.7124 135.608 66.9804C135.974 66.2484 136.34 65.6993 136.706 65.3333C142.928 60.5751 148.235 54.719 152.627 47.7647C154.458 44.8366 157.203 43.9216 160.863 45.0196C162.327 45.7516 163.425 45.7516 164.157 45.0196C165.255 45.0196 165.804 44.4706 165.804 43.3725C165.804 38.6144 167.817 34.2222 171.843 30.1961C173.307 28.366 174.588 26.5359 175.686 24.7059C177.15 22.8758 178.98 21.4118 181.176 20.3137C183.373 18.8497 184.837 16.1046 185.569 12.0784C185.935 8.78431 187.033 6.22222 188.863 4.39215C190.693 2.19607 192.889 0.732028 195.451 0C197.647 0.366019 199.843 1.09804 202.039 2.19608C204.235 2.9281 206.248 3.47713 208.078 3.84314C209.908 4.20916 211.739 4.75816 213.569 5.49018C215.399 5.8562 217.229 6.40523 219.059 7.13726C220.523 8.60132 222.17 10.0654 224 11.5294C225.83 12.9935 227.477 14.4575 228.941 15.9216V22.5098C231.503 26.5359 234.614 29.098 238.274 30.1961C240.105 30.5621 241.569 31.1111 242.667 31.8431C244.131 32.2091 245.595 32.7582 247.059 33.4902V34.0392C247.059 34.0392 247.425 34.9542 248.157 36.7843C249.255 38.2484 249.987 39.8954 250.353 41.7255C251.451 42.4575 252.549 43.5556 253.647 45.0196C255.111 46.1177 256.575 47.2157 258.039 48.3137Z" fill="white"/>
</svg>
